<svg height="3310" width="720" xmlns="http://www.w3.org/2000/svg">
<rect height="3310" fill="#555" width="720"></rect>
<text fill="#7f7" font-family="Courier New" font-size="12" xml:space="preserve">
<tspan x="10" y="26">36 megabytes installed</tspan>
<tspan x="10" y="42"></tspan>
<tspan x="10" y="58">node_modules</tspan>
<tspan x="10" y="74">└─┬ mup@1.2.6 </tspan>
<tspan x="10" y="90">  ├─┬ archiver@1.3.0 </tspan>
<tspan x="10" y="106">  │ ├─┬ archiver-utils@1.3.0 </tspan>
<tspan x="10" y="122">  │ │ ├── graceful-fs@4.1.11 </tspan>
<tspan x="10" y="138">  │ │ ├── lazystream@1.0.0 </tspan>
<tspan x="10" y="154">  │ │ └─┬ normalize-path@2.1.1 </tspan>
<tspan x="10" y="170">  │ │   └── remove-trailing-separator@1.0.1 </tspan>
<tspan x="10" y="186">  │ ├── buffer-crc32@0.2.13 </tspan>
<tspan x="10" y="202">  │ ├─┬ glob@7.1.1 </tspan>
<tspan x="10" y="218">  │ │ ├── fs.realpath@1.0.0 </tspan>
<tspan x="10" y="234">  │ │ ├─┬ inflight@1.0.6 </tspan>
<tspan x="10" y="250">  │ │ │ └── wrappy@1.0.2 </tspan>
<tspan x="10" y="266">  │ │ ├── inherits@2.0.3 </tspan>
<tspan x="10" y="282">  │ │ ├─┬ minimatch@3.0.3 </tspan>
<tspan x="10" y="298">  │ │ │ └─┬ brace-expansion@1.1.7 </tspan>
<tspan x="10" y="314">  │ │ │   ├── balanced-match@0.4.2 </tspan>
<tspan x="10" y="330">  │ │ │   └── concat-map@0.0.1 </tspan>
<tspan x="10" y="346">  │ │ ├── once@1.4.0 </tspan>
<tspan x="10" y="362">  │ │ └── path-is-absolute@1.0.1 </tspan>
<tspan x="10" y="378">  │ ├── lodash@4.17.4 </tspan>
<tspan x="10" y="394">  │ ├─┬ readable-stream@2.2.9 </tspan>
<tspan x="10" y="410">  │ │ ├── buffer-shims@1.0.0 </tspan>
<tspan x="10" y="426">  │ │ ├── core-util-is@1.0.2 </tspan>
<tspan x="10" y="442">  │ │ ├── isarray@1.0.0 </tspan>
<tspan x="10" y="458">  │ │ ├── process-nextick-args@1.0.7 </tspan>
<tspan x="10" y="474">  │ │ ├── string_decoder@1.0.0 </tspan>
<tspan x="10" y="490">  │ │ └── util-deprecate@1.0.2 </tspan>
<tspan x="10" y="506">  │ ├─┬ tar-stream@1.5.2 </tspan>
<tspan x="10" y="522">  │ │ ├── bl@1.2.0 </tspan>
<tspan x="10" y="538">  │ │ └── end-of-stream@1.4.0 </tspan>
<tspan x="10" y="554">  │ ├── walkdir@0.0.11 </tspan>
<tspan x="10" y="570">  │ └─┬ zip-stream@1.1.1 </tspan>
<tspan x="10" y="586">  │   └─┬ compress-commons@1.2.0 </tspan>
<tspan x="10" y="602">  │     └─┬ crc32-stream@2.0.0 </tspan>
<tspan x="10" y="618">  │       └── crc@3.4.4 </tspan>
<tspan x="10" y="634">  ├── async@2.3.0 </tspan>
<tspan x="10" y="650">  ├─┬ babel-polyfill@6.6.1 </tspan>
<tspan x="10" y="666">  │ ├── babel-regenerator-runtime@6.5.0 </tspan>
<tspan x="10" y="682">  │ ├─┬ babel-runtime@5.8.38 </tspan>
<tspan x="10" y="698">  │ │ └── core-js@1.2.7 </tspan>
<tspan x="10" y="714">  │ └── core-js@2.4.1 </tspan>
<tspan x="10" y="730">  ├── bluebird@3.5.0 </tspan>
<tspan x="10" y="746">  ├─┬ boxen@1.0.0 </tspan>
<tspan x="10" y="762">  │ ├─┬ ansi-align@1.1.0 </tspan>
<tspan x="10" y="778">  │ │ └─┬ string-width@1.0.2 </tspan>
<tspan x="10" y="794">  │ │   ├── code-point-at@1.1.0 </tspan>
<tspan x="10" y="810">  │ │   └─┬ is-fullwidth-code-point@1.0.0 </tspan>
<tspan x="10" y="826">  │ │     └── number-is-nan@1.0.1 </tspan>
<tspan x="10" y="842">  │ ├── camelcase@4.1.0 </tspan>
<tspan x="10" y="858">  │ ├── cli-boxes@1.0.0 </tspan>
<tspan x="10" y="874">  │ ├─┬ string-width@2.0.0 </tspan>
<tspan x="10" y="890">  │ │ └── is-fullwidth-code-point@2.0.0 </tspan>
<tspan x="10" y="906">  │ ├─┬ term-size@0.1.1 </tspan>
<tspan x="10" y="922">  │ │ └─┬ execa@0.4.0 </tspan>
<tspan x="10" y="938">  │ │   ├─┬ cross-spawn-async@2.2.5 </tspan>
<tspan x="10" y="954">  │ │   │ ├─┬ lru-cache@4.0.2 </tspan>
<tspan x="10" y="970">  │ │   │ │ ├── pseudomap@1.0.2 </tspan>
<tspan x="10" y="986">  │ │   │ │ └── yallist@2.1.2 </tspan>
<tspan x="10" y="1002">  │ │   │ └─┬ which@1.2.14 </tspan>
<tspan x="10" y="1018">  │ │   │   └── isexe@2.0.0 </tspan>
<tspan x="10" y="1034">  │ │   ├── is-stream@1.1.0 </tspan>
<tspan x="10" y="1050">  │ │   ├── npm-run-path@1.0.0 </tspan>
<tspan x="10" y="1066">  │ │   ├── object-assign@4.1.1 </tspan>
<tspan x="10" y="1082">  │ │   ├── path-key@1.0.0 </tspan>
<tspan x="10" y="1098">  │ │   └── strip-eof@1.0.0 </tspan>
<tspan x="10" y="1114">  │ └─┬ widest-line@1.0.0 </tspan>
<tspan x="10" y="1130">  │   └── string-width@1.0.2 </tspan>
<tspan x="10" y="1146">  ├─┬ chai@3.5.0 </tspan>
<tspan x="10" y="1162">  │ ├── assertion-error@1.0.2 </tspan>
<tspan x="10" y="1178">  │ ├─┬ deep-eql@0.1.3 </tspan>
<tspan x="10" y="1194">  │ │ └── type-detect@0.1.1 </tspan>
<tspan x="10" y="1210">  │ └── type-detect@1.0.0 </tspan>
<tspan x="10" y="1226">  ├─┬ chalk@1.1.3 </tspan>
<tspan x="10" y="1242">  │ ├── ansi-styles@2.2.1 </tspan>
<tspan x="10" y="1258">  │ ├── escape-string-regexp@1.0.5 </tspan>
<tspan x="10" y="1274">  │ ├─┬ has-ansi@2.0.0 </tspan>
<tspan x="10" y="1290">  │ │ └── ansi-regex@2.1.1 </tspan>
<tspan x="10" y="1306">  │ ├── strip-ansi@3.0.1 </tspan>
<tspan x="10" y="1322">  │ └── supports-color@2.0.0 </tspan>
<tspan x="10" y="1338">  ├─┬ commander@2.9.0 </tspan>
<tspan x="10" y="1354">  │ └── graceful-readlink@1.0.1 </tspan>
<tspan x="10" y="1370">  ├─┬ debug@2.6.4 </tspan>
<tspan x="10" y="1386">  │ └── ms@0.7.3 </tspan>
<tspan x="10" y="1402">  ├─┬ expand-tilde@2.0.2 </tspan>
<tspan x="10" y="1418">  │ └─┬ homedir-polyfill@1.0.1 </tspan>
<tspan x="10" y="1434">  │   └── parse-passwd@1.0.0 </tspan>
<tspan x="10" y="1450">  ├─┬ joi@10.4.1 </tspan>
<tspan x="10" y="1466">  │ ├── hoek@4.1.1 </tspan>
<tspan x="10" y="1482">  │ ├── isemail@2.2.1 </tspan>
<tspan x="10" y="1498">  │ ├── items@2.1.1 </tspan>
<tspan x="10" y="1514">  │ └── topo@2.0.2 </tspan>
<tspan x="10" y="1530">  ├─┬ nodemiral@1.1.1 </tspan>
<tspan x="10" y="1546">  │ ├── async@0.9.0 </tspan>
<tspan x="10" y="1562">  │ ├── colors@0.6.2 </tspan>
<tspan x="10" y="1578">  │ ├── debug@0.7.4 </tspan>
<tspan x="10" y="1594">  │ ├── ejs@0.8.8 </tspan>
<tspan x="10" y="1610">  │ ├── progress@1.1.5 </tspan>
<tspan x="10" y="1626">  │ └─┬ ssh2@0.4.6 </tspan>
<tspan x="10" y="1642">  │   └─┬ readable-stream@1.0.34 </tspan>
<tspan x="10" y="1658">  │     ├── isarray@0.0.1 </tspan>
<tspan x="10" y="1674">  │     └── string_decoder@0.10.31 </tspan>
<tspan x="10" y="1690">  ├─┬ parse-json@2.2.0 </tspan>
<tspan x="10" y="1706">  │ └─┬ error-ex@1.3.1 </tspan>
<tspan x="10" y="1722">  │   └── is-arrayish@0.2.1 </tspan>
<tspan x="10" y="1738">  ├─┬ random-seed@0.3.0 </tspan>
<tspan x="10" y="1754">  │ └── json-stringify-safe@5.0.1 </tspan>
<tspan x="10" y="1770">  ├── shelljs@0.5.3 </tspan>
<tspan x="10" y="1786">  ├─┬ silent-npm-registry-client@2.1.0 </tspan>
<tspan x="10" y="1802">  │ ├─┬ npm-registry-client@7.5.0 </tspan>
<tspan x="10" y="1818">  │ │ ├─┬ concat-stream@1.6.0 </tspan>
<tspan x="10" y="1834">  │ │ │ └── typedarray@0.0.6 </tspan>
<tspan x="10" y="1850">  │ │ ├─┬ normalize-package-data@2.3.8 </tspan>
<tspan x="10" y="1866">  │ │ │ ├── hosted-git-info@2.4.2 </tspan>
<tspan x="10" y="1882">  │ │ │ ├─┬ is-builtin-module@1.0.0 </tspan>
<tspan x="10" y="1898">  │ │ │ │ └── builtin-modules@1.1.1 </tspan>
<tspan x="10" y="1914">  │ │ │ └─┬ validate-npm-package-license@3.0.1 </tspan>
<tspan x="10" y="1930">  │ │ │   ├─┬ spdx-correct@1.0.2 </tspan>
<tspan x="10" y="1946">  │ │ │   │ └── spdx-license-ids@1.2.2 </tspan>
<tspan x="10" y="1962">  │ │ │   └── spdx-expression-parse@1.0.4 </tspan>
<tspan x="10" y="1978">  │ │ ├── npm-package-arg@4.2.1 </tspan>
<tspan x="10" y="1994">  │ │ ├─┬ npmlog@4.0.2 </tspan>
<tspan x="10" y="2010">  │ │ │ ├─┬ are-we-there-yet@1.1.4 </tspan>
<tspan x="10" y="2026">  │ │ │ │ └── delegates@1.0.0 </tspan>
<tspan x="10" y="2042">  │ │ │ ├── console-control-strings@1.1.0 </tspan>
<tspan x="10" y="2058">  │ │ │ ├─┬ gauge@2.7.4 </tspan>
<tspan x="10" y="2074">  │ │ │ │ ├── aproba@1.1.1 </tspan>
<tspan x="10" y="2090">  │ │ │ │ ├── has-unicode@2.0.1 </tspan>
<tspan x="10" y="2106">  │ │ │ │ ├── signal-exit@3.0.2 </tspan>
<tspan x="10" y="2122">  │ │ │ │ ├── string-width@1.0.2 </tspan>
<tspan x="10" y="2138">  │ │ │ │ └─┬ wide-align@1.1.0 </tspan>
<tspan x="10" y="2154">  │ │ │ │   └── string-width@1.0.2 </tspan>
<tspan x="10" y="2170">  │ │ │ └── set-blocking@2.0.0 </tspan>
<tspan x="10" y="2186">  │ │ ├─┬ request@2.81.0 </tspan>
<tspan x="10" y="2202">  │ │ │ ├── aws-sign2@0.6.0 </tspan>
<tspan x="10" y="2218">  │ │ │ ├── aws4@1.6.0 </tspan>
<tspan x="10" y="2234">  │ │ │ ├── caseless@0.12.0 </tspan>
<tspan x="10" y="2250">  │ │ │ ├─┬ combined-stream@1.0.5 </tspan>
<tspan x="10" y="2266">  │ │ │ │ └── delayed-stream@1.0.0 </tspan>
<tspan x="10" y="2282">  │ │ │ ├── extend@3.0.0 </tspan>
<tspan x="10" y="2298">  │ │ │ ├── forever-agent@0.6.1 </tspan>
<tspan x="10" y="2314">  │ │ │ ├─┬ form-data@2.1.4 </tspan>
<tspan x="10" y="2330">  │ │ │ │ └── asynckit@0.4.0 </tspan>
<tspan x="10" y="2346">  │ │ │ ├─┬ har-validator@4.2.1 </tspan>
<tspan x="10" y="2362">  │ │ │ │ ├─┬ ajv@4.11.7 </tspan>
<tspan x="10" y="2378">  │ │ │ │ │ ├── co@4.6.0 </tspan>
<tspan x="10" y="2394">  │ │ │ │ │ └─┬ json-stable-stringify@1.0.1 </tspan>
<tspan x="10" y="2410">  │ │ │ │ │   └── jsonify@0.0.0 </tspan>
<tspan x="10" y="2426">  │ │ │ │ └── har-schema@1.0.5 </tspan>
<tspan x="10" y="2442">  │ │ │ ├─┬ hawk@3.1.3 </tspan>
<tspan x="10" y="2458">  │ │ │ │ ├─┬ boom@2.10.1 </tspan>
<tspan x="10" y="2474">  │ │ │ │ │ └── hoek@2.16.3 </tspan>
<tspan x="10" y="2490">  │ │ │ │ ├── cryptiles@2.0.5 </tspan>
<tspan x="10" y="2506">  │ │ │ │ ├── hoek@2.16.3 </tspan>
<tspan x="10" y="2522">  │ │ │ │ └─┬ sntp@1.0.9 </tspan>
<tspan x="10" y="2538">  │ │ │ │   └── hoek@2.16.3 </tspan>
<tspan x="10" y="2554">  │ │ │ ├─┬ http-signature@1.1.1 </tspan>
<tspan x="10" y="2570">  │ │ │ │ ├── assert-plus@0.2.0 </tspan>
<tspan x="10" y="2586">  │ │ │ │ ├─┬ jsprim@1.4.0 </tspan>
<tspan x="10" y="2602">  │ │ │ │ │ ├── assert-plus@1.0.0 </tspan>
<tspan x="10" y="2618">  │ │ │ │ │ ├── extsprintf@1.0.2 </tspan>
<tspan x="10" y="2634">  │ │ │ │ │ ├── json-schema@0.2.3 </tspan>
<tspan x="10" y="2650">  │ │ │ │ │ └── verror@1.3.6 </tspan>
<tspan x="10" y="2666">  │ │ │ │ └─┬ sshpk@1.13.0 </tspan>
<tspan x="10" y="2682">  │ │ │ │   ├── assert-plus@1.0.0 </tspan>
<tspan x="10" y="2698">  │ │ │ │   ├── bcrypt-pbkdf@1.0.1 </tspan>
<tspan x="10" y="2714">  │ │ │ │   ├─┬ dashdash@1.14.1 </tspan>
<tspan x="10" y="2730">  │ │ │ │   │ └── assert-plus@1.0.0 </tspan>
<tspan x="10" y="2746">  │ │ │ │   ├── ecc-jsbn@0.1.1 </tspan>
<tspan x="10" y="2762">  │ │ │ │   ├─┬ getpass@0.1.6 </tspan>
<tspan x="10" y="2778">  │ │ │ │   │ └── assert-plus@1.0.0 </tspan>
<tspan x="10" y="2794">  │ │ │ │   ├── jodid25519@1.0.2 </tspan>
<tspan x="10" y="2810">  │ │ │ │   ├── jsbn@0.1.1 </tspan>
<tspan x="10" y="2826">  │ │ │ │   └── tweetnacl@0.14.5 </tspan>
<tspan x="10" y="2842">  │ │ │ ├── is-typedarray@1.0.0 </tspan>
<tspan x="10" y="2858">  │ │ │ ├── isstream@0.1.2 </tspan>
<tspan x="10" y="2874">  │ │ │ ├─┬ mime-types@2.1.15 </tspan>
<tspan x="10" y="2890">  │ │ │ │ └── mime-db@1.27.0 </tspan>
<tspan x="10" y="2906">  │ │ │ ├── oauth-sign@0.8.2 </tspan>
<tspan x="10" y="2922">  │ │ │ ├── performance-now@0.2.0 </tspan>
<tspan x="10" y="2938">  │ │ │ ├── qs@6.4.0 </tspan>
<tspan x="10" y="2954">  │ │ │ ├── safe-buffer@5.0.1 </tspan>
<tspan x="10" y="2970">  │ │ │ ├── stringstream@0.0.5 </tspan>
<tspan x="10" y="2986">  │ │ │ ├─┬ tough-cookie@2.3.2 </tspan>
<tspan x="10" y="3002">  │ │ │ │ └── punycode@1.4.1 </tspan>
<tspan x="10" y="3018">  │ │ │ ├── tunnel-agent@0.6.0 </tspan>
<tspan x="10" y="3034">  │ │ │ └── uuid@3.0.1 </tspan>
<tspan x="10" y="3050">  │ │ ├── retry@0.10.1 </tspan>
<tspan x="10" y="3066">  │ │ ├── semver@5.3.0 </tspan>
<tspan x="10" y="3082">  │ │ └── slide@1.1.6 </tspan>
<tspan x="10" y="3098">  │ └── xtend@4.0.1 </tspan>
<tspan x="10" y="3114">  ├─┬ ssh2@0.4.15 </tspan>
<tspan x="10" y="3130">  │ ├─┬ readable-stream@1.0.34 </tspan>
<tspan x="10" y="3146">  │ │ ├── isarray@0.0.1 </tspan>
<tspan x="10" y="3162">  │ │ └── string_decoder@0.10.31 </tspan>
<tspan x="10" y="3178">  │ └─┬ ssh2-streams@0.0.23 </tspan>
<tspan x="10" y="3194">  │   ├── asn1@0.2.3 </tspan>
<tspan x="10" y="3210">  │   ├─┬ readable-stream@1.0.34 </tspan>
<tspan x="10" y="3226">  │   │ ├── isarray@0.0.1 </tspan>
<tspan x="10" y="3242">  │   │ └── string_decoder@0.10.31 </tspan>
<tspan x="10" y="3258">  │   └── streamsearch@0.1.2 </tspan>
<tspan x="10" y="3274">  ├── underscore@1.8.3 </tspan>
<tspan x="10" y="3290">  └── uuid@2.0.3</tspan>
</text>
</svg>
